<svg xmlns="http://www.w3.org/2000/svg" width="396.797" height="84.961" viewBox="0 0 396.797 84.961">
  <path id="Path_16" data-name="Path 16" d="M-122.52-13.008A98.4,98.4,0,0,1-134.634-2.153q-4.9,3.5-8.771,3.5a9.624,9.624,0,0,1-6.482-2.4,56.957,56.957,0,0,1-6.658-7.207Q-168.486,1.348-178.2,1.348a16.841,16.841,0,0,1-13.9-6.973q-5.414-6.973-5.414-17.988a65.086,65.086,0,0,1,4.613-23.672,82.27,82.27,0,0,1,11.719-21.006q7.106-9.111,11.676-12.158t13.945-3.047l.117.82q-13.359,12.539-19.395,27.129T-180.879-27.6q0,8.672,3.4,13.564a10.758,10.758,0,0,0,9.322,4.893q3.929,0,8.971-3.105a27.113,27.113,0,0,0-4.693-5.508,6.653,6.653,0,0,0-4.165-1.348,9.554,9.554,0,0,0-1.144.205,9.554,9.554,0,0,1-1.144.205q-.821,0-.821-.762,0-1.523,3.49-4.482a10.923,10.923,0,0,1,7.069-2.959,8.773,8.773,0,0,1,5.015,1.523,36.5,36.5,0,0,1,5.309,4.629q18.725-23.848,18.725-46.465a16.832,16.832,0,0,0-1.665-8.115q-1.665-3.018-4.411-3.018-5.083,0-9.435,7.676t-4.352,13.535q0,4.395,3.943,4.922,1.682.176,1.682,1.465a7.022,7.022,0,0,1-2.666,5.1,8.13,8.13,0,0,1-5.537,2.461,7.141,7.141,0,0,1-5.889-3.135,12.784,12.784,0,0,1-2.373-7.939q0-10.137,7.646-19.687t15.5-9.551a10.19,10.19,0,0,1,8.73,4.365q3.164,4.365,3.164,12.041,0,24.082-20.421,50.039,5.514,8.145,10.207,8.145,5.867,0,14.9-10.84Zm62.52.059A105.215,105.215,0,0,1-72.949-2.139q-5.215,3.486-9.375,3.486a8.077,8.077,0,0,1-7.119-3.691q-2.49-3.691-2.49-10.02A64.906,64.906,0,0,1-103.477-1.9a18.065,18.065,0,0,1-9.961,3.369,8.43,8.43,0,0,1-7.148-3.691q-2.7-3.691-2.7-10.02,0-12.187,8.2-34.336l15.65-3.118q-9.652,28.087-9.673,36.052,0,5.621,4.219,5.621,3.047,0,7.559-4.951t5.625-8.643l7.676-24.961,15.949-3.225Q-73.6-32.172-75.653-25.024T-77.709-15q0,5.511,3.753,5.511,3.05,0,9.031-5.566L-60-19.687Zm52.559,0a19.644,19.644,0,0,1-5.8,3.721A13.321,13.321,0,0,1-17.7-8.145a13.494,13.494,0,0,1-8.379-3.281Q-34.512,1.348-45.41,1.348a13.616,13.616,0,0,1-11.016-5.1q-4.219-5.1-4.219-13.535a31.441,31.441,0,0,1,9.492-22.939A30.808,30.808,0,0,1-28.477-49.8q4.98,0,7.295,1.084a5.028,5.028,0,0,1,2.842,2.549,11.028,11.028,0,0,1,.527,3.691q0,10.957-5.977,26.895a9.182,9.182,0,0,0,6.27,2.754q3.926,0,10.078-6.855ZM-26.777-45.7a7.058,7.058,0,0,0-2.52-.352q-7.617,0-11.924,7.969a38.6,38.6,0,0,0-4.307,18.633q0,5.918,1.875,9.2a5.773,5.773,0,0,0,5.215,3.281q4.16,0,9.023-7.676a23.437,23.437,0,0,1-5.508-14.883Q-34.922-38.906-26.777-45.7ZM26.25-12.949A84.236,84.236,0,0,1,13.477-2.139,19.022,19.022,0,0,1,3.223,1.348,9.708,9.708,0,0,1-4.951-2.9Q-8.086-7.148-8.086-14.062q0-6.094,3.007-16.09l2.486-8.871-4.5.234,1.877-9.2,5.571-.234L5.859-66.5l15.653-3.213L15.456-49.336,23.73-49.8,21.8-40.781l-9.089.7L8.8-26.949A40.657,40.657,0,0,0,6.768-16.059a6.978,6.978,0,0,0,1.379,4.486,4.337,4.337,0,0,0,3.55,1.73,10.792,10.792,0,0,0,5.927-1.9q2.934-1.9,8.626-7.939Zm43.77,0A72.379,72.379,0,0,1,56.66-2.139,25.268,25.268,0,0,1,43.594,1.348q-7.969,0-12.861-5.1T25.84-17.168a33.666,33.666,0,0,1,8.613-22.471q8.613-10.049,19.1-10.049a12.955,12.955,0,0,1,8.73,2.813,9.253,9.253,0,0,1,3.281,7.383q0,12.129-25.781,19.688Q42.129-8.379,52.031-8.379a14.284,14.284,0,0,0,7.383-2.08q3.516-2.08,10.605-9.229Zm-30.7-10.84q15-4.219,15-15.586,0-5.625-4.1-5.625-3.867,0-7.383,5.889T39.316-23.789ZM127.676-72.6q0,14.063-10.371,14.063a12.833,12.833,0,0,1-8.613-3.047,42.507,42.507,0,0,0,5.273-11.6q4.629,2.871,7.441,2.871A10.516,10.516,0,0,0,127.676-72.6Zm1.172,59.648Q115.137,1.465,108.34,1.465q-3.75,0-6.328-3.838a16.919,16.919,0,0,1-2.578-9.639q0-12.48,8.438-34.57l14.883-3.105h.7L117.6-31.348q-3.633,11.367-3.633,16.23a5.313,5.313,0,0,0,.85,3.135,2.537,2.537,0,0,0,2.139,1.2,7.844,7.844,0,0,0,4.6-1.67,56.5,56.5,0,0,0,7.295-7.236Zm33.75,0A84.236,84.236,0,0,1,149.824-2.139,19.022,19.022,0,0,1,139.57,1.348,9.708,9.708,0,0,1,131.4-2.9q-3.135-4.248-3.135-11.162,0-6.094,3.007-16.09l2.486-8.871-4.5.234,1.877-9.2,5.571-.234,5.5-18.281,15.653-3.213L151.8-49.336l8.275-.469-1.935,9.023-9.089.7-3.9,13.13a40.657,40.657,0,0,0-2.034,10.889,6.978,6.978,0,0,0,1.379,4.486,4.337,4.337,0,0,0,3.55,1.73,10.792,10.792,0,0,0,5.927-1.9q2.934-1.9,8.626-7.939ZM179.473-22.5a21.809,21.809,0,0,1-3.457-11.79q0-5.162,3.193-13.315A105.136,105.136,0,0,0,183.34-59.63a35.586,35.586,0,0,0,.938-8.388,31.547,31.547,0,0,0-.527-6.218q-.527-2.581-.527-2.932,0-1.055,6.006-3.574t6.943-2.52q1.113,0,2.109,3.46a28.2,28.2,0,0,1,1,7.8,36.376,36.376,0,0,1-2.109,11.994,66.2,66.2,0,0,1-7.178,13.871,100.213,100.213,0,0,0-6.768,11.554,17.138,17.138,0,0,0-1.7,7.039q0,.234.234,1.818t.234,1.877Q181.992-23.321,179.473-22.5Zm5.684,10.078q.352,0,.352.583a30.69,30.69,0,0,1-1.816,5.047,17.78,17.78,0,0,1-3.809,6.3,7.9,7.9,0,0,1-5.566,1.838,15.7,15.7,0,0,1-6.855-1.664Q164-1.981,164-2.623a5.229,5.229,0,0,1,.586-1.227,29.785,29.785,0,0,0,4.688-10.745q.176-1.4.586-1.4.7,0,1.582,1.055a11.973,11.973,0,0,0,8.262,3.691,10.629,10.629,0,0,0,3.545-.586A12.259,12.259,0,0,1,185.156-12.422Z" transform="translate(197.52 83.496)" fill="#ffc400"/>
</svg>
